# xmcd
#
# Track frame offsets:
# 150
# 24002
# 38940
# 52990
# 62075
# 70575
# 91377
# 100315
# 131490
# 141925
# 153220
# 168065
# 176417
# 204232
#
# Disc length: 2902 seconds
#
#
# Revision: 0
# Processed by: cddbd v1.5.2PL0 Copyright (c) Steve Scherf et al.
# Submitted via: FreeRIP 2.96 
#
DISCID=aa0b540e
DTITLE=Zekai Dede - Bestekarlarimiz
DYEAR=2005
DGENRE=Instrumental
TTITLE0=Saba tesbih
TTITLE1=Sevkitarab Tevsih
TTITLE2=Acemasiran Ilahi
TTITLE3=Acemasiran Ilahi2
TTITLE4=Rebab Taksimi
TTITLE5=Suzidil Ilahi
TTITLE6=Ud Taksimi
TTITLE7=Ussak Ilahi
TTITLE8=Kemence Taksimi
TTITLE9=Nikriz Ilahi
TTITLE10=Hicaz Ilahi
TTITLE11=Tanbur Taksimi
TTITLE12=Rast Ilahi
TTITLE13=Mahur Ilahi
EXTD=
EXTT0=
EXTT1=
EXTT2=
EXTT3=
EXTT4=
EXTT5=
EXTT6=
EXTT7=
EXTT8=
EXTT9=
EXTT10=
EXTT11=
EXTT12=
EXTT13=
PLAYORDER=
